<svg version="1.1" viewBox="0.0 0.0 480.0 384.0" fill="none" stroke="none" stroke-linecap="square" stroke-miterlimit="10" xmlns:xlink="http://www.w3.org/1999/xlink" xmlns="http://www.w3.org/2000/svg"><clipPath id="p.0"><path d="m0 0l480.0 0l0 384.0l-480.0 0l0 -384.0z" clip-rule="nonzero"/></clipPath><g clip-path="url(#p.0)"><path fill="#ffffff" d="m0 0l480.0 0l0 384.0l-480.0 0z" fill-rule="evenodd"/><path fill="#eeeeee" d="m166.8937 48.012207l0 0c0 -13.128719 10.642944 -23.771652 23.771667 -23.771652l89.21637 0l0 0c6.3046265 0 12.351044 2.5045052 16.809113 6.962557c4.4580383 4.458048 6.962555 10.504461 6.962555 16.809095l0 6.790661l0 0c0 13.128719 -10.642944 23.771656 -23.771667 23.771656l-89.21637 0c-13.128723 0 -23.771667 -10.642937 -23.771667 -23.771656z" fill-rule="evenodd"/><path stroke="#595959" stroke-width="1.0" stroke-linejoin="round" stroke-linecap="butt" d="m166.8937 48.012207l0 0c0 -13.128719 10.642944 -23.771652 23.771667 -23.771652l89.21637 0l0 0c6.3046265 0 12.351044 2.5045052 16.809113 6.962557c4.4580383 4.458048 6.962555 10.504461 6.962555 16.809095l0 6.790661l0 0c0 13.128719 -10.642944 23.771656 -23.771667 23.771656l-89.21637 0c-13.128723 0 -23.771667 -10.642937 -23.771667 -23.771656z" fill-rule="evenodd"/><path fill="#eeeeee" d="m204.4236 24.240555l58.607986 0l0 48.4662l-58.607986 0z" fill-rule="evenodd"/><path fill="#000000" d="m216.64166 41.530556l0 -2.4375l2.109375 0l0 2.4375l-2.109375 0zm0 14.75l0 -12.453125l2.109375 0l0 12.453125l-2.109375 0zm13.394531 0l0 -1.578125q-1.1875 1.859375 -3.484375 1.859375q-1.484375 0 -2.734375 -0.8125q-1.25 -0.828125 -1.9375 -2.296875q-0.671875 -1.46875 -0.671875 -3.390625q0 -1.859375 0.609375 -3.375q0.625 -1.515625 1.859375 -2.328125q1.25 -0.8125 2.78125 -0.8125q1.125 0 2.0 0.484375q0.890625 0.46875 1.4375 1.234375l0 -6.171875l2.09375 0l0 17.1875l-1.953125 0zm-6.671875 -6.21875q0 2.390625 1.0 3.578125q1.015625 1.1875 2.390625 1.1875q1.390625 0 2.34375 -1.125q0.96875 -1.140625 0.96875 -3.453125q0 -2.5625 -0.984375 -3.75q-0.984375 -1.203125 -2.421875 -1.203125q-1.40625 0 -2.359375 1.15625q-0.9375 1.140625 -0.9375 3.609375zm11.894531 6.21875l0 -17.1875l2.109375 0l0 17.1875l-2.109375 0zm13.910156 -4.015625l2.171875 0.28125q-0.515625 1.90625 -1.90625 2.96875q-1.390625 1.046875 -3.5625 1.046875q-2.734375 0 -4.34375 -1.671875q-1.59375 -1.6875 -1.59375 -4.734375q0 -3.140625 1.609375 -4.875q1.625 -1.734375 4.203125 -1.734375q2.5 0 4.078125 1.703125q1.59375 1.703125 1.59375 4.78125q0 0.1875 -0.015625 0.5625l-9.28125 0q0.109375 2.046875 1.15625 3.140625q1.046875 1.09375 2.609375 1.09375q1.15625 0 1.96875 -0.609375q0.828125 -0.609375 1.3125 -1.953125zm-6.9375 -3.40625l6.953125 0q-0.140625 -1.5625 -0.796875 -2.359375q-1.0 -1.21875 -2.609375 -1.21875q-1.453125 0 -2.453125 0.984375q-0.984375 0.96875 -1.09375 2.59375z" fill-rule="nonzero"/><path fill="#eeeeee" d="m165.34784 329.19574l0 0c0 -13.128723 10.642929 -23.771667 23.771652 -23.771667l89.216385 0l0 0c6.3046265 0 12.351044 2.5045166 16.809082 6.962555c4.458069 4.4580383 6.962555 10.504456 6.962555 16.809113l0 6.7906494l0 0c0 13.128723 -10.642914 23.771667 -23.771637 23.771667l-89.216385 0c-13.128723 0 -23.771652 -10.642944 -23.771652 -23.771667z" fill-rule="evenodd"/><path stroke="#595959" stroke-width="1.0" stroke-linejoin="round" stroke-linecap="butt" d="m165.34784 329.19574l0 0c0 -13.128723 10.642929 -23.771667 23.771652 -23.771667l89.216385 0l0 0c6.3046265 0 12.351044 2.5045166 16.809082 6.962555c4.458069 4.4580383 6.962555 10.504456 6.962555 16.809113l0 6.7906494l0 0c0 13.128723 -10.642914 23.771667 -23.771637 23.771667l-89.216385 0c-13.128723 0 -23.771652 -10.642944 -23.771652 -23.771667z" fill-rule="evenodd"/><path fill="#000000" fill-opacity="0.0" d="m189.51402 305.42407l95.6418 0l0 48.466217l-95.6418 0z" fill-rule="evenodd"/><path fill="#000000" d="m215.69038 335.93283q-1.171875 0.984375 -2.265625 1.40625q-1.078125 0.40625 -2.3125 0.40625q-2.046875 0 -3.15625 -1.0q-1.09375 -1.0 -1.09375 -2.5625q0 -0.921875 0.40625 -1.671875q0.421875 -0.75 1.09375 -1.203125q0.671875 -0.46875 1.515625 -0.703125q0.625 -0.15625 1.875 -0.3125q2.5625 -0.3125 3.765625 -0.734375q0.015625 -0.421875 0.015625 -0.546875q0 -1.28125 -0.609375 -1.8125q-0.796875 -0.71875 -2.390625 -0.71875q-1.5 0 -2.203125 0.53125q-0.703125 0.515625 -1.046875 1.84375l-2.0625 -0.28125q0.28125 -1.328125 0.921875 -2.140625q0.640625 -0.8125 1.859375 -1.25q1.21875 -0.453125 2.828125 -0.453125q1.59375 0 2.59375 0.375q1.0 0.375 1.46875 0.953125q0.46875 0.5625 0.65625 1.4375q0.09375 0.53125 0.09375 1.9375l0 2.8125q0 2.9375 0.140625 3.71875q0.140625 0.78125 0.53125 1.5l-2.203125 0q-0.328125 -0.65625 -0.421875 -1.53125zm-0.171875 -4.71875q-1.15625 0.46875 -3.453125 0.796875q-1.296875 0.1875 -1.84375 0.421875q-0.53125 0.234375 -0.828125 0.6875q-0.28125 0.453125 -0.28125 1.0q0 0.84375 0.625 1.40625q0.640625 0.5625 1.875 0.5625q1.21875 0 2.171875 -0.53125q0.953125 -0.53125 1.390625 -1.453125q0.34375 -0.71875 0.34375 -2.109375l0 -0.78125zm13.519531 1.6875l2.078125 0.265625q-0.34375 2.15625 -1.75 3.375q-1.390625 1.203125 -3.4375 1.203125q-2.546875 0 -4.109375 -1.671875q-1.546875 -1.671875 -1.546875 -4.78125q0 -2.015625 0.671875 -3.53125q0.671875 -1.515625 2.03125 -2.265625q1.359375 -0.765625 2.96875 -0.765625q2.03125 0 3.3125 1.03125q1.296875 1.03125 1.65625 2.90625l-2.046875 0.328125q-0.296875 -1.265625 -1.046875 -1.890625q-0.734375 -0.640625 -1.796875 -0.640625q-1.59375 0 -2.59375 1.15625q-0.984375 1.140625 -0.984375 3.609375q0 2.5 0.953125 3.640625q0.96875 1.140625 2.515625 1.140625q1.234375 0 2.0625 -0.765625q0.84375 -0.765625 1.0625 -2.34375zm8.484375 2.671875l0.3125 1.859375q-0.890625 0.203125 -1.59375 0.203125q-1.15625 0 -1.796875 -0.359375q-0.625 -0.375 -0.890625 -0.96875q-0.25 -0.59375 -0.25 -2.484375l0 -7.171875l-1.546875 0l0 -1.640625l1.546875 0l0 -3.078125l2.09375 -1.265625l0 4.34375l2.125 0l0 1.640625l-2.125 0l0 7.28125q0 0.90625 0.109375 1.171875q0.125 0.25 0.375 0.40625q0.25 0.140625 0.71875 0.140625q0.34375 0 0.921875 -0.078125zm2.0742188 -12.859375l0 -2.4375l2.109375 0l0 2.4375l-2.109375 0zm0 14.75l0 -12.453125l2.109375 0l0 12.453125l-2.109375 0zm8.785156 0l-4.734375 -12.453125l2.21875 0l2.671875 7.453125q0.4375 1.21875 0.796875 2.515625q0.28125 -0.984375 0.78125 -2.375l2.765625 -7.59375l2.171875 0l-4.703125 12.453125l-1.96875 0zm17.062485 -4.015625l2.171875 0.28125q-0.515625 1.90625 -1.90625 2.96875q-1.390625 1.046875 -3.5625 1.046875q-2.734375 0 -4.34375 -1.671875q-1.59375 -1.6875 -1.59375 -4.734375q0 -3.140625 1.609375 -4.875q1.625 -1.734375 4.203125 -1.734375q2.5 0 4.078125 1.703125q1.59375 1.703125 1.59375 4.78125q0 0.1875 -0.015625 0.5625l-9.28125 0q0.109375 2.046875 1.15625 3.140625q1.046875 1.09375 2.609375 1.09375q1.15625 0 1.96875 -0.609375q0.828125 -0.609375 1.3125 -1.953125zm-6.9375 -3.40625l6.953125 0q-0.140625 -1.5625 -0.796875 -2.359375q-1.0 -1.21875 -2.609375 -1.21875q-1.453125 0 -2.453125 0.984375q-0.984375 0.96875 -1.09375 2.59375z" fill-rule="nonzero"/><path fill="#eeeeee" d="m20.788807 182.49147l0 0c0 -13.128723 10.642933 -23.771652 23.771656 -23.771652l89.21638 0l0 0c6.3046417 0 12.351059 2.5045013 16.809097 6.962555c4.4580536 4.4580536 6.962555 10.504456 6.962555 16.809097l0 6.7906494l0 0c0 13.128723 -10.642929 23.771667 -23.771652 23.771667l-89.21638 0c-13.128723 0 -23.771656 -10.642944 -23.771656 -23.771667z" fill-rule="evenodd"/><path stroke="#595959" stroke-width="1.0" stroke-linejoin="round" stroke-linecap="butt" d="m20.788807 182.49147l0 0c0 -13.128723 10.642933 -23.771652 23.771656 -23.771652l89.21638 0l0 0c6.3046417 0 12.351059 2.5045013 16.809097 6.962555c4.4580536 4.4580536 6.962555 10.504456 6.962555 16.809097l0 6.7906494l0 0c0 13.128723 -10.642929 23.771667 -23.771652 23.771667l-89.21638 0c-13.128723 0 -23.771656 -10.642944 -23.771656 -23.771667z" fill-rule="evenodd"/><path fill="#000000" fill-opacity="0.0" d="m44.954994 158.71982l95.64179 0l0 48.4662l-95.64179 0z" fill-rule="evenodd"/><path fill="#000000" d="m57.016125 176.00981l0 -2.4375l2.109375 0l0 2.4375l-2.109375 0zm0 14.75l0 -12.453125l2.109375 0l0 12.453125l-2.109375 0zm5.3164062 0l0 -12.453125l1.9062462 0l0 1.78125q1.375 -2.0625 3.953125 -2.0625q1.125 0 2.0625 0.40625q0.953125 0.40625 1.421875 1.0625q0.46875 0.65625 0.65625 1.5625q0.125 0.578125 0.125 2.046875l0 7.65625l-2.109375 0l0 -7.578125q0 -1.28125 -0.25 -1.921875q-0.25 -0.640625 -0.875 -1.015625q-0.625 -0.390625 -1.46875 -0.390625q-1.34375 0 -2.328125 0.859375q-0.984375 0.859375 -0.984375 3.25l0 6.796875l-2.1093712 0zm16.816402 0l-4.734375 -12.453125l2.21875 0l2.671875 7.453125q0.4375 1.21875 0.796875 2.515625q0.28125 -0.984375 0.78125 -2.375l2.765625 -7.59375l2.171875 0l-4.703125 12.453125l-1.96875 0zm8.546875 -14.75l0 -2.4375l2.109375 0l0 2.4375l-2.109375 0zm0 14.75l0 -12.453125l2.109375 0l0 12.453125l-2.109375 0zm9.925781 -1.890625l0.3125 1.859375q-0.890625 0.203125 -1.59375 0.203125q-1.15625 0 -1.796875 -0.359375q-0.625 -0.375 -0.890625 -0.96875q-0.25 -0.59375 -0.25 -2.484375l0 -7.171875l-1.546875 0l0 -1.640625l1.546875 0l0 -3.078125l2.09375 -1.265625l0 4.34375l2.125 0l0 1.640625l-2.125 0l0 7.28125q0 0.90625 0.109375 1.171875q0.125 0.25 0.375 0.40625q0.25 0.140625 0.71875 0.140625q0.34375 0 0.921875 -0.078125zm2.0742188 -12.859375l0 -2.4375l2.109375 0l0 2.4375l-2.109375 0zm0 14.75l0 -12.453125l2.109375 0l0 12.453125l-2.109375 0zm5.3164062 0l0 -12.453125l1.90625 0l0 1.78125q1.375 -2.0625 3.953125 -2.0625q1.125 0 2.0625 0.40625q0.953125 0.40625 1.421875 1.0625q0.46875 0.65625 0.65625 1.5625q0.125 0.578125 0.125 2.046875l0 7.65625l-2.109375 0l0 -7.578125q0 -1.28125 -0.25 -1.921875q-0.25 -0.640625 -0.875 -1.015625q-0.625 -0.390625 -1.46875 -0.390625q-1.34375 0 -2.328125 0.859375q-0.984375 0.859375 -0.984375 3.25l0 6.796875l-2.109375 0zm12.972656 1.03125l2.046875 0.3125q0.125 0.9375 0.71875 1.375q0.78125 0.59375 2.140625 0.59375q1.46875 0 2.265625 -0.59375q0.796875 -0.578125 1.078125 -1.640625q0.15625 -0.640625 0.140625 -2.703125q-1.375 1.625 -3.4375 1.625q-2.5625 0 -3.96875 -1.84375q-1.40625 -1.859375 -1.40625 -4.453125q0 -1.78125 0.640625 -3.28125q0.640625 -1.515625 1.859375 -2.328125q1.234375 -0.828125 2.890625 -0.828125q2.203125 0 3.625 1.78125l0 -1.5l1.9531174 0l0 10.765625q0 2.90625 -0.5937424 4.109375q-0.59375 1.21875 -1.875 1.921875q-1.28125 0.703125 -3.15625 0.703125q-2.234375 0 -3.609375 -1.0q-1.359375 -1.0 -1.3125 -3.015625zm1.734375 -7.484375q0 2.453125 0.96875 3.578125q0.984375 1.125 2.453125 1.125q1.453125 0 2.4375 -1.109375q0.984375 -1.125 0.984375 -3.515625q0 -2.28125 -1.015625 -3.4375q-1.015625 -1.171875 -2.453125 -1.171875q-1.40625 0 -2.390625 1.140625q-0.984375 1.140625 -0.984375 3.390625z" fill-rule="nonzero"/><path fill="#eeeeee" d="m322.4508 182.49147l0 0c0 -13.128723 10.642914 -23.771652 23.771637 -23.771652l89.2164 0l0 0c6.3046265 0 12.351044 2.5045013 16.809082 6.962555c4.4580383 4.4580536 6.962555 10.504456 6.962555 16.809097l0 6.7906494l0 0c0 13.128723 -10.642944 23.771667 -23.771637 23.771667l-89.2164 0c-13.128723 0 -23.771637 -10.642944 -23.771637 -23.771667z" fill-rule="evenodd"/><path stroke="#595959" stroke-width="1.0" stroke-linejoin="round" stroke-linecap="butt" d="m322.4508 182.49147l0 0c0 -13.128723 10.642914 -23.771652 23.771637 -23.771652l89.2164 0l0 0c6.3046265 0 12.351044 2.5045013 16.809082 6.962555c4.4580383 4.4580536 6.962555 10.504456 6.962555 16.809097l0 6.7906494l0 0c0 13.128723 -10.642944 23.771667 -23.771637 23.771667l-89.2164 0c-13.128723 0 -23.771637 -10.642944 -23.771637 -23.771667z" fill-rule="evenodd"/><path fill="#000000" fill-opacity="0.0" d="m346.61697 158.71982l95.641785 0l0 48.4662l-95.641785 0z" fill-rule="evenodd"/><path fill="#000000" d="m361.34412 176.00981l0 -2.4375l2.109375 0l0 2.4375l-2.109375 0zm0 14.75l0 -12.453125l2.109375 0l0 12.453125l-2.109375 0zm5.3164062 0l0 -12.453125l1.90625 0l0 1.78125q1.375 -2.0625 3.953125 -2.0625q1.125 0 2.0625 0.40625q0.953125 0.40625 1.421875 1.0625q0.46875 0.65625 0.65625 1.5625q0.125 0.578125 0.125 2.046875l0 7.65625l-2.109375 0l0 -7.578125q0 -1.28125 -0.25 -1.921875q-0.25 -0.640625 -0.875 -1.015625q-0.625 -0.390625 -1.46875 -0.390625q-1.34375 0 -2.328125 0.859375q-0.984375 0.859375 -0.984375 3.25l0 6.796875l-2.109375 0zm16.816406 0l-4.734375 -12.453125l2.21875 0l2.671875 7.453125q0.4375 1.21875 0.796875 2.515625q0.28125 -0.984375 0.78125 -2.375l2.765625 -7.59375l2.171875 0l-4.703125 12.453125l-1.96875 0zm8.546875 -14.75l0 -2.4375l2.109375 0l0 2.4375l-2.109375 0zm0 14.75l0 -12.453125l2.109375 0l0 12.453125l-2.109375 0zm9.925781 -1.890625l0.3125 1.859375q-0.890625 0.203125 -1.59375 0.203125q-1.15625 0 -1.796875 -0.359375q-0.625 -0.375 -0.890625 -0.96875q-0.25 -0.59375 -0.25 -2.484375l0 -7.171875l-1.546875 0l0 -1.640625l1.546875 0l0 -3.078125l2.09375 -1.265625l0 4.34375l2.125 0l0 1.640625l-2.125 0l0 7.28125q0 0.90625 0.109375 1.171875q0.125 0.25 0.375 0.40625q0.25 0.140625 0.71875 0.140625q0.34375 0 0.921875 -0.078125zm10.589844 -2.125l2.171875 0.28125q-0.515625 1.90625 -1.90625 2.96875q-1.390625 1.046875 -3.5625 1.046875q-2.734375 0 -4.34375 -1.671875q-1.59375 -1.6875 -1.59375 -4.734375q0 -3.140625 1.609375 -4.875q1.625 -1.734375 4.203125 -1.734375q2.5 0 4.078125 1.703125q1.59375 1.703125 1.59375 4.78125q0 0.1875 -0.015625 0.5625l-9.28125 0q0.109375 2.046875 1.15625 3.140625q1.046875 1.09375 2.609375 1.09375q1.15625 0 1.96875 -0.609375q0.828125 -0.609375 1.3125 -1.953125zm-6.9375 -3.40625l6.953125 0q-0.140625 -1.5625 -0.796875 -2.359375q-1.0 -1.21875 -2.609375 -1.21875q-1.453125 0 -2.453125 0.984375q-0.984375 0.96875 -1.09375 2.59375zm19.832031 7.421875l0 -1.578125q-1.1875 1.859375 -3.484375 1.859375q-1.484375 0 -2.734375 -0.8125q-1.25 -0.828125 -1.9375 -2.296875q-0.671875 -1.46875 -0.671875 -3.390625q0 -1.859375 0.609375 -3.375q0.625 -1.515625 1.859375 -2.328125q1.25 -0.8125 2.78125 -0.8125q1.125 0 2.0 0.484375q0.890625 0.46875 1.4375 1.234375l0 -6.171875l2.09375 0l0 17.1875l-1.953125 0zm-6.671875 -6.21875q0 2.390625 1.0 3.578125q1.015625 1.1875 2.390625 1.1875q1.390625 0 2.34375 -1.125q0.96875 -1.140625 0.96875 -3.453125q0 -2.5625 -0.984375 -3.75q-0.984375 -1.203125 -2.421875 -1.203125q-1.40625 0 -2.359375 1.15625q-0.9375 1.140625 -0.9375 3.609375z" fill-rule="nonzero"/><path fill="#eeeeee" d="m166.16481 69.68076l-59.072533 72.777565l6.134117 6.0290833l-22.754234 7.663376l4.3605347 -25.742111l6.1341095 6.0290833l59.072533 -72.77757z" fill-rule="evenodd"/><path stroke="#595959" stroke-width="1.0" stroke-linejoin="round" stroke-linecap="butt" d="m166.16481 69.68076l-59.072533 72.777565l6.134117 6.0290833l-22.754234 7.663376l4.3605347 -25.742111l6.1341095 6.0290833l59.072533 -72.77757z" fill-rule="evenodd"/><path fill="#eeeeee" d="m93.09796 219.15892l59.713623 72.081406l6.0710907 -6.1026l4.632843 25.729614l-22.83757 -7.43042l6.0710907 -6.1026l-59.713615 -72.08139z" fill-rule="evenodd"/><path stroke="#595959" stroke-width="1.0" stroke-linejoin="round" stroke-linecap="butt" d="m93.09796 219.15892l59.713623 72.081406l6.0710907 -6.1026l4.632843 25.729614l-22.83757 -7.43042l6.0710907 -6.1026l-59.713615 -72.08139z" fill-rule="evenodd"/><path fill="#eeeeee" d="m308.39447 64.029465l59.713623 72.081406l6.0710754 -6.1026l4.632843 25.729614l-22.837555 -7.4304047l6.071106 -6.1026l-59.713623 -72.08141z" fill-rule="evenodd"/><path stroke="#595959" stroke-width="1.0" stroke-linejoin="round" stroke-linecap="butt" d="m308.39447 64.029465l59.713623 72.081406l6.0710754 -6.1026l4.632843 25.729614l-22.837555 -7.4304047l6.071106 -6.1026l-59.713623 -72.08141z" fill-rule="evenodd"/><path fill="#eeeeee" d="m383.52942 227.31229l-62.537598 68.824585l5.808502 6.396698l-23.241943 6.403778l5.8246155 -25.5849l5.808502 6.3967285l62.537598 -68.824585z" fill-rule="evenodd"/><path stroke="#595959" stroke-width="1.0" stroke-linejoin="round" stroke-linecap="butt" d="m383.52942 227.31229l-62.537598 68.824585l5.808502 6.396698l-23.241943 6.403778l5.8246155 -25.5849l5.808502 6.3967285l62.537598 -68.824585z" fill-rule="evenodd"/><path fill="#eeeeee" d="m338.06226 152.44403l-43.591034 -51.712105l-6.0290833 6.1551285l-4.8499146 -25.705223l22.92865 7.2485275l-6.0290833 6.155121l43.591034 51.712112z" fill-rule="evenodd"/><path stroke="#595959" stroke-width="1.0" stroke-linejoin="round" stroke-linecap="butt" d="m338.06226 152.44403l-43.591034 -51.712105l-6.0290833 6.1551285l-4.8499146 -25.705223l22.92865 7.2485275l-6.0290833 6.155121l43.591034 51.712112z" fill-rule="evenodd"/><path fill="#eeeeee" d="m123.12277 148.05058l41.265167 -54.301315l-6.312683 -5.7979965l22.435623 -8.3758545l-3.506485 25.76168l-6.312683 -5.798004l-41.265167 54.301315z" fill-rule="evenodd"/><path stroke="#595959" stroke-width="1.0" stroke-linejoin="round" stroke-linecap="butt" d="m123.12277 148.05058l41.265167 -54.301315l-6.312683 -5.7979965l22.435623 -8.3758545l-3.506485 25.76168l-6.312683 -5.798004l-41.265167 54.301315z" fill-rule="evenodd"/><path fill="#eeeeee" d="m231.61137 300.37466l-2.8708344 -194.39993l-5.2105103 -0.42203522l9.768463 -22.324478l10.452011 23.962273l-5.2105103 -0.42203522l2.870819 194.39993z" fill-rule="evenodd"/><path stroke="#595959" stroke-width="1.0" stroke-linejoin="round" stroke-linecap="butt" d="m231.61137 300.37466l-2.8708344 -194.39993l-5.2105103 -0.42203522l9.768463 -22.324478l10.452011 23.962273l-5.2105103 -0.42203522l2.870819 194.39993z" fill-rule="evenodd"/></g></svg>